<mxfile host="app.diagrams.net" modified="2020-12-27T15:48:10.409Z" agent="5.0 (X11)" etag="PyeE9kCcDOTO51DqI1Tx" version="14.1.2" type="github">
  <diagram id="FUQ7WM10_oxuQGR_7635" name="Page-1">
    <mxGraphModel dx="981" dy="554" grid="1" gridSize="10" guides="1" tooltips="1" connect="1" arrows="1" fold="1" page="1" pageScale="1" pageWidth="850" pageHeight="1100" math="0" shadow="0">
      <root>
        <mxCell id="0" />
        <mxCell id="1" parent="0" />
        <mxCell id="pUrWqBLiwYEnSv1kH_32-18" style="edgeStyle=orthogonalEdgeStyle;rounded=0;orthogonalLoop=1;jettySize=auto;html=1;" edge="1" parent="1" source="pUrWqBLiwYEnSv1kH_32-1">
          <mxGeometry relative="1" as="geometry">
            <mxPoint x="290" y="360" as="targetPoint" />
          </mxGeometry>
        </mxCell>
        <mxCell id="pUrWqBLiwYEnSv1kH_32-19" style="edgeStyle=orthogonalEdgeStyle;rounded=0;orthogonalLoop=1;jettySize=auto;html=1;exitX=1;exitY=0.5;exitDx=0;exitDy=0;" edge="1" parent="1" source="pUrWqBLiwYEnSv1kH_32-1">
          <mxGeometry relative="1" as="geometry">
            <mxPoint x="520" y="360" as="targetPoint" />
            <Array as="points">
              <mxPoint x="520" y="182" />
              <mxPoint x="520" y="360" />
            </Array>
          </mxGeometry>
        </mxCell>
        <mxCell id="pUrWqBLiwYEnSv1kH_32-20" style="edgeStyle=orthogonalEdgeStyle;rounded=0;orthogonalLoop=1;jettySize=auto;html=1;exitX=0.5;exitY=1;exitDx=0;exitDy=0;" edge="1" parent="1" source="pUrWqBLiwYEnSv1kH_32-1">
          <mxGeometry relative="1" as="geometry">
            <mxPoint x="402.5" y="360" as="targetPoint" />
          </mxGeometry>
        </mxCell>
        <mxCell id="pUrWqBLiwYEnSv1kH_32-1" value="Size Pizza?" style="ellipse;whiteSpace=wrap;html=1;aspect=fixed;" vertex="1" parent="1">
          <mxGeometry x="360" y="140" width="85" height="85" as="geometry" />
        </mxCell>
        <mxCell id="pUrWqBLiwYEnSv1kH_32-25" value="Small&lt;br&gt;$15" style="whiteSpace=wrap;html=1;" vertex="1" parent="1">
          <mxGeometry x="260" y="300" width="60" height="40" as="geometry" />
        </mxCell>
        <mxCell id="pUrWqBLiwYEnSv1kH_32-28" value="Medium&lt;br&gt;$20" style="whiteSpace=wrap;html=1;" vertex="1" parent="1">
          <mxGeometry x="372.5" y="300" width="60" height="40" as="geometry" />
        </mxCell>
        <mxCell id="pUrWqBLiwYEnSv1kH_32-30" value="Large&lt;br&gt;$25" style="whiteSpace=wrap;html=1;" vertex="1" parent="1">
          <mxGeometry x="490" y="300" width="60" height="40" as="geometry" />
        </mxCell>
      </root>
    </mxGraphModel>
  </diagram>
</mxfile>
